# xmcd
#
# Track frame offsets: 
#        150
#        14581
#        27015
#        40424
#        55791
#        69805
#        83111
#        95515
#        110918
#        123692
#
# Disc length: 2216 seconds
#
# Revision: 0
# Processed by: cddbd v1.5.2PL0 Copyright (c) Steve Scherf et al.
# Submitted via: ExactAudioCopy v0.99pb4
#
DISCID=8208a60a
DTITLE=Jonson, Bunk - From Storyville, New Orleans
DYEAR=1900
DGENRE=Jazz
TTITLE0=Storyville Blues
TTITLE1=Bunk's blues
TTITLE2=Down by the riverside
TTITLE3=Moose march
TTITLE4=Ballin' the Jack
TTITLE5=Panama
TTITLE6=Weary Blues
TTITLE7=Make me a pallet on the floor
TTITLE8=Yes, Lord I'm crippled
TTITLE9=Bunk Johnson talking records
EXTD=
EXTT0=
EXTT1=
EXTT2=
EXTT3=
EXTT4=
EXTT5=
EXTT6=
EXTT7=
EXTT8=
EXTT9=
PLAYORDER=
